<svg xmlns="http://www.w3.org/2000/svg" width="1300" height="1000">
    <path 
        d="
            M1020 0 C1020 0 1120 250 520 480, 520 480 250 750 1370 1030
            M1050 0 C1050 0 1150 250 550 500, 550 500 300 750 1400 1000
            M1080 0 C1080 0 1180 250 580 520, 580 520 350 750 1430 970
            M0 200 C0 200 700 500 0 900
            M0 230 C0 250 650 470 0 870
            M0 270 C0 270 580 500 0 830"
        stroke-linecap="round"
        stroke-width="1"
        stroke-opacity="1"
        stroke="#7451EB"
        fill="transparent"
    />
</svg>